<?xml version="1.0" encoding="utf-8"?>
<!-- Generator: Adobe Illustrator 15.0.0, SVG Export Plug-In . SVG Version: 6.00 Build 0)  -->
<!DOCTYPE svg PUBLIC "-//W3C//DTD SVG 1.1//EN" "http://www.w3.org/Graphics/SVG/1.1/DTD/svg11.dtd">
<svg version="1.1" id="图层_1" xmlns="http://www.w3.org/2000/svg" xmlns:xlink="http://www.w3.org/1999/xlink" x="0px" y="0px"
	 width="1361px" height="609px" viewBox="0 0 1361 609" enable-background="new 0 0 1361 609" xml:space="preserve">
<title>Group 21</title>
<desc>Created with Sketch.</desc>
<g opacity="0.06">
	<polygon fill="#3F3F3F" points="1214.39,501.226 1220.244,511.367 1226.1,521.509 1214.39,521.509 1202.68,521.509 
		1208.535,511.367 	"/>
	<polygon fill="#3F3F3F" points="1201.862,143.325 1207.717,153.466 1213.572,163.607 1201.862,163.607 1190.152,163.607 
		1196.008,153.466 	"/>
	<polygon fill="#3F3F3F" points="1232.929,525.729 1222.579,507.802 1212.228,489.875 1232.929,489.875 1253.631,489.875 
		1243.28,507.802 	"/>
	<polygon fill="#3F3F3F" points="1252.729,56.523 1263.08,74.451 1273.43,92.378 1252.729,92.378 1232.028,92.378 1242.379,74.451 	
		"/>
	<polygon fill="#3F3F3F" points="1223.783,95.12 1220.526,89.479 1217.269,83.838 1223.783,83.838 1230.297,83.838 1227.04,89.479 	
		"/>
	<polygon fill="#3F3F3F" points="1262.654,62.164 1259.397,56.523 1256.14,50.882 1262.654,50.882 1269.168,50.882 1265.911,56.523 
			"/>
	<polygon fill="none" stroke="#3F3F3F" stroke-miterlimit="10" points="1248.674,182.504 1239.12,165.956 1229.566,149.408 
		1248.674,149.408 1267.782,149.408 1258.227,165.956 	"/>
	<polygon fill="#3F3F3F" points="1229.555,177.425 1208.681,141.27 1187.807,105.114 1229.555,105.114 1271.303,105.114 
		1250.429,141.27 	"/>
	<polygon fill="#3F3F3F" points="143.153,130.129 140.079,124.804 137.005,119.48 143.153,119.48 149.301,119.48 146.227,124.804 	
		"/>
	<polygon fill="#3F3F3F" points="161.302,89.468 158.228,84.143 155.154,78.819 161.302,78.819 167.45,78.819 164.376,84.143 	"/>
	<polygon fill="#3F3F3F" points="311.017,82.104 307.89,76.688 304.763,71.273 311.017,71.273 317.27,71.273 314.143,76.688 	"/>
	<polygon fill="#3F3F3F" points="241.315,128.844 238.188,123.428 235.062,118.013 241.315,118.013 247.568,118.013 
		244.441,123.428 	"/>
	<polygon fill="#3F3F3F" points="181.025,464.611 188.158,476.966 195.291,489.32 181.025,489.32 166.759,489.32 173.892,476.966 	
		"/>
	<polygon fill="#3F3F3F" points="164.756,476.862 160.483,469.462 156.21,462.062 164.756,462.062 173.301,462.062 169.028,469.462 
			"/>
	<polygon fill="none" stroke="#3F3F3F" stroke-miterlimit="10" points="1183.594,500.532 1180.374,494.954 1177.152,489.375 
		1183.594,489.375 1190.036,489.375 1186.815,494.954 	"/>
	<polygon fill="none" stroke="#3F3F3F" stroke-miterlimit="10" points="1118.628,490.251 1131.76,512.996 1144.891,535.741 
		1118.628,535.741 1092.363,535.741 1105.495,512.996 	"/>
	<polygon fill="none" stroke="#3F3F3F" stroke-miterlimit="10" points="1118.437,507.123 1125.003,518.496 1131.569,529.868 
		1118.437,529.868 1105.305,529.868 1111.872,518.496 	"/>
	<polygon fill="none" stroke="#3F3F3F" stroke-miterlimit="10" points="1229.555,153.466 1219.117,135.389 1208.681,117.311 
		1229.555,117.311 1250.429,117.311 1239.994,135.389 	"/>
	<polygon fill="none" stroke="#3F3F3F" stroke-miterlimit="10" points="1230.857,453.607 1237.77,465.581 1244.682,477.555 
		1230.857,477.555 1217.031,477.555 1223.944,465.581 	"/>
	<polygon fill="none" stroke="#3F3F3F" stroke-miterlimit="10" points="1248.828,466.846 1241.915,454.872 1235.003,442.898 
		1248.828,442.898 1262.654,442.898 1255.741,454.872 	"/>
	<polygon fill="none" stroke="#3F3F3F" stroke-miterlimit="10" points="1189.638,167.296 1206.711,196.866 1223.783,226.437 
		1189.638,226.437 1155.492,226.437 1172.565,196.866 	"/>
	<polygon fill="none" stroke="#3F3F3F" stroke-miterlimit="10" points="1236.08,236.866 1225.642,218.789 1215.206,200.711 
		1236.08,200.711 1256.954,200.711 1246.517,218.789 	"/>
	<polygon fill="none" stroke="#3F3F3F" stroke-miterlimit="10" points="230.302,548.681 219.636,530.207 208.97,511.733 
		230.302,511.733 251.635,511.733 240.969,530.207 	"/>
	<polygon fill="none" stroke="#3F3F3F" stroke-miterlimit="10" points="245.528,536.039 253.141,549.226 260.754,562.411 
		245.528,562.411 230.302,562.411 237.915,549.226 	"/>
	<polygon fill="none" stroke="#3F3F3F" stroke-miterlimit="10" points="117.767,134.25 143.197,178.295 168.626,222.341 
		117.767,222.341 66.908,222.341 92.337,178.295 	"/>
	<polygon fill="none" stroke="#3F3F3F" stroke-miterlimit="10" points="267.094,22.687 292.958,67.485 318.822,112.282 
		267.094,112.282 215.366,112.282 241.23,67.485 	"/>
	<polygon fill="none" stroke="#3F3F3F" stroke-miterlimit="10" points="266.72,55.918 279.652,78.317 292.584,100.715 
		266.72,100.715 240.856,100.715 253.788,78.317 	"/>
	<polygon fill="none" stroke="#3F3F3F" stroke-miterlimit="10" points="168.626,182.947 143.196,138.902 117.767,94.856 
		168.626,94.856 219.486,94.856 194.056,138.902 	"/>
	<polygon fill="none" stroke="#3F3F3F" stroke-miterlimit="10" points="216.885,130.129 203.952,107.73 191.021,85.332 
		216.885,85.332 242.749,85.332 229.817,107.73 	"/>
	<polygon fill="none" stroke="#3F3F3F" stroke-miterlimit="10" points="155.496,282.574 142.781,260.552 130.066,238.528 
		155.496,238.528 180.927,238.528 168.211,260.552 	"/>
	<polygon fill="none" stroke="#3F3F3F" stroke-miterlimit="10" points="187.864,366.409 213.294,410.455 238.723,454.5 
		187.864,454.5 137.005,454.5 162.434,410.455 	"/>
	<polygon fill="none" stroke="#3F3F3F" stroke-miterlimit="10" points="131.656,218.672 157.087,262.717 182.515,306.763 
		131.656,306.763 80.797,306.763 106.226,262.717 	"/>
	<polygon fill="#3F3F3F" points="161.302,122.034 173.911,143.874 186.52,165.714 161.302,165.714 136.083,165.714 148.693,143.874 
			"/>
	<polygon fill="#3F3F3F" points="114.841,238.161 127.449,260.001 140.059,281.841 114.841,281.841 89.622,281.841 102.232,260.001 
			"/>
	<polygon fill="#3F3F3F" points="121.494,110.275 126.808,119.481 132.123,128.686 121.494,128.686 110.865,128.686 
		116.179,119.481 	"/>
	<polygon fill="#3F3F3F" points="330.995,71.325 336.4,80.688 341.806,90.051 330.995,90.051 320.182,90.051 325.59,80.688 	"/>
</g>
</svg>
